    <svg id="图层_1" data-name="图层 1" xmlns="http://www.w3.org/2000/svg" xmlns:xlink="http://www.w3.org/1999/xlink" viewBox="0 0 830 830.22">
        <defs>
            <style>
                .cls-1 {
                    opacity: 0.4;
                    isolation: isolate;
                    fill: url(#未命名的渐变);
                }

                .cls-2 {
                    fill: none;
                }

                @keyframes openYourHeart {
                    from {
                        /* r: 0; */
                        transform-origin: 400px 400px;
                        transform: rotate(0deg)
                    }
                    to {
                        /* r: 60px; */
                        transform-origin: 400px 400px;
                        transform: rotate(360deg)
                    }
                }

                #ssss {
                    animation: openYourHeart 3s linear infinite;
                }
            </style>
            <linearGradient id="未命名的渐变" x1="726.29" y1="1724.14" x2="1622.68" y2="2284.26" gradientTransform="matrix(-1, 0, 0, 1, 1589.57, -1589.05)"
                gradientUnits="userSpaceOnUse">
                <stop offset="0" stop-color="#197bd1" />
                <stop offset="1" stop-color="#94c3ec" />
            </linearGradient>
            <clipPath id="myClip">
                <circle cy="80" cx="80" r="111" fill="white" id="ssss" />
            </clipPath>
        </defs>
        <title>outline</title>
        <g id="图层_2" data-name="图层 2">
            <g id="图层_1-2" data-name="图层 1-2">
                <g id="items">
                    <path id="mainPath" class="cls-1" d="M409.49,828.21q-3.4,0-6.78-.16l-.06,2q3.4.1,6.82.16v-2Zm11.27,2q3.41,0,6.82-.14l-.06-2q-3.39.1-6.79.15v2Zm18.1-.63q3.41-.19,6.8-.44l-.15-2q-3.38.24-6.77.44Zm18.06-1.41q3.4-.34,6.78-.74l-.23-2q-3.37.39-6.75.73l.2,2Zm18-2.2,6.74-1-.32-2q-3.35.54-6.71,1Zm17.87-3q3.35-.64,6.69-1.33l-.41-2q-3.32.69-6.66,1.32l.38,2Zm17.72-3.76q3.32-.78,6.62-1.62l-.49-2q-3.29.83-6.59,1.61l.46,2ZM528,814.7q3.28-.93,6.55-1.91l-.58-1.92q-3.25,1-6.52,1.9l.54,1.93Zm17.32-5.31q3.24-1.07,6.46-2.19l-.66-1.9q-3.2,1.12-6.43,2.18l.63,1.91Zm17.07-6.06q3.19-1.21,6.36-2.48L568,799q-3.15,1.26-6.33,2.47l.71,1.88Zm16.79-6.81q3.13-1.35,6.24-2.75l-.82-1.83q-3.09,1.4-6.21,2.74l.79,1.84ZM595.69,789q3.07-1.49,6.11-3l-.9-1.79q-3,1.53-6.08,3l.87,1.81Zm16.13-8.25q3-1.62,6-3.29l-1-1.75-6,3.27,1,1.77Zm15.75-9q2.93-1.75,5.83-3.55l-1.06-1.71q-2.88,1.79-5.8,3.53l1,1.73Zm15.34-9.63q2.85-1.87,5.67-3.8l-1.13-1.66q-2.8,1.91-5.64,3.78l1.1,1.68Zm14.91-10.28,5.49-4-1.2-1.61-5.47,4,1.17,1.63ZM672.26,741q2.68-2.12,5.31-4.27l-1.27-1.56q-2.63,2.15-5.29,4.25l1.24,1.58Zm14-11.54q2.58-2.23,5.12-4.5l-1.34-1.5q-2.53,2.26-5.1,4.48l1.31,1.52Zm13.44-12.14q2.48-2.34,4.92-4.72l-1.4-1.44q-2.43,2.37-4.9,4.69l1.38,1.46Zm12.91-12.7q2.38-2.44,4.71-4.93l-1.46-1.38q-2.33,2.47-4.69,4.9l1.44,1.4ZM725,691.33q2.27-2.54,4.5-5.12l-1.52-1.31q-2.22,2.57-4.48,5.1l1.5,1.34Zm11.76-13.77q2.16-2.64,4.27-5.32L739.35,671q-2.1,2.66-4.25,5.29l1.56,1.27Zm11.15-14.27q2-2.73,4-5.5l-1.63-1.17q-2,2.75-4,5.47l1.61,1.2Zm10.52-14.74q1.92-2.82,3.79-5.67l-1.68-1.1q-1.86,2.84-3.77,5.64l1.66,1.13Zm9.86-15.19q1.8-2.9,3.55-5.83l-1.73-1q-1.74,2.92-3.53,5.8l1.71,1.06Zm9.21-15.6q1.67-3,3.29-6l-1.77-1q-1.61,3-3.27,6l1.75,1Zm8.5-16q1.54-3,3-6.11l-1.81-.87q-1.48,3.06-3,6.08l1.79.9Zm7.81-16.34q1.4-3.11,2.75-6.24l-1.85-.79q-1.34,3.12-2.74,6.21l1.83.82Zm7.09-16.67q1.27-3.17,2.48-6.36l-1.88-.71q-1.21,3.18-2.46,6.33l1.87.74Zm6.34-17q1.12-3.22,2.19-6.46l-1.91-.63q-1.07,3.22-2.18,6.43l1.9.66Zm7.55-249.59q-.93-3.28-1.91-6.55l-1.92.58q1,3.25,1.9,6.52l1.93-.55Zm-5.31-17.32q-1.07-3.24-2.2-6.46l-1.9.66q1.12,3.2,2.18,6.43l1.91-.63Zm-6.06-17.07q-1.21-3.19-2.48-6.36l-1.87.74q1.26,3.15,2.46,6.33l1.88-.71ZM796.51,251q-1.35-3.13-2.75-6.24l-1.83.82q1.39,3.09,2.74,6.21l1.84-.79ZM789,234.55q-1.49-3.07-3-6.11l-1.79.9q1.53,3,3,6.08l1.81-.87Zm-8.25-16.13q-1.62-3-3.29-6l-1.75,1q1.66,3,3.27,5.95l1.77-1Zm-9-15.75q-1.75-2.93-3.55-5.83l-1.71,1.06q1.79,2.88,3.53,5.8l1.73-1Zm-9.63-15.34q-1.87-2.85-3.8-5.67l-1.66,1.13q1.91,2.8,3.78,5.64l1.68-1.1Zm-10.29-14.91-4-5.5-1.61,1.2q2,2.72,4,5.47l1.63-1.17ZM740.94,158q-2.12-2.67-4.27-5.31L735.11,154q2.15,2.63,4.25,5.29l1.58-1.24ZM729.4,144q-2.23-2.58-4.5-5.12l-1.5,1.34q2.26,2.53,4.48,5.1Zm-12.14-13.44q-2.34-2.48-4.72-4.92L711.1,127q2.37,2.43,4.69,4.9l1.46-1.38Zm-12.7-12.91q-2.44-2.38-4.92-4.71l-1.38,1.46q2.47,2.33,4.9,4.69l1.4-1.44Zm-13.25-12.34q-2.54-2.27-5.13-4.5l-1.31,1.52q2.57,2.22,5.1,4.48ZM677.55,93.57q-2.64-2.16-5.31-4.27L671,90.88q2.66,2.1,5.29,4.25l1.27-1.56ZM663.28,82.42l-5.5-4L656.61,80l5.47,4,1.2-1.61ZM648.54,71.9q-2.82-1.92-5.67-3.79l-1.1,1.68q2.84,1.86,5.64,3.77l1.13-1.66ZM633.35,62q-2.9-1.8-5.83-3.55l-1,1.73q2.91,1.74,5.8,3.53Zm-15.6-9.21q-3-1.67-6-3.29l-1,1.77q3,1.61,6,3.27l1-1.75Zm-16-8.5q-3-1.54-6.11-3l-.87,1.81q3,1.48,6.08,3l.9-1.79Zm-16.34-7.81q-3.11-1.4-6.24-2.75l-.79,1.84q3.12,1.34,6.21,2.74l.82-1.83Zm-16.67-7.09q-3.16-1.27-6.36-2.48l-.71,1.88q3.2,1.21,6.33,2.5l.74-1.87Zm-17-6.34q-3.22-1.12-6.46-2.19l-.63,1.91q3.23,1.07,6.43,2.18l.66-1.9ZM534.56,17.5q-3.26-1-6.55-1.91l-.55,1.93q3.27.93,6.52,1.9l.58-1.92ZM517.1,12.66q-3.3-.84-6.63-1.62L510,13q3.31.78,6.59,1.61l.49-1.95Zm-17.66-4Q496.1,8,492.75,7.33l-.37,2q3.34.64,6.66,1.32l.41-2Zm-17.8-3.33q-3.36-.55-6.74-1l-.29,2q3.37.48,6.71,1Zm-18-2.5q-3.38-.4-6.78-.74l-.2,2q3.38.34,6.75.74Zm-18-1.73Q442.3.85,438.88.66l-.12,2q3.4.19,6.77.44l.15-2ZM427.58.16q-3.4-.11-6.82-.16V2q3.4,0,6.78.16l.06-2ZM409.47,0Q406,0,402.65.15l.06,2q3.39-.1,6.78-.14V0Zm-18.1.63q-3.41.19-6.8.44l.15,2q3.38-.25,6.77-.44ZM373.31,2q-3.4.34-6.78.73l.23,2q3.36-.39,6.75-.73Zm-18,2.2-6.74,1,.32,2q3.35-.54,6.71-1Zm-17.87,3q-3.36.63-6.69,1.32l.41,2q3.32-.69,6.66-1.32l-.37-2ZM319.74,11q-3.32.78-6.63,1.62l.49,1.95q3.29-.83,6.59-1.61l-.46-2ZM302.2,15.53q-3.28.93-6.55,1.91l.58,1.92q3.25-1,6.52-1.9Zm-17.32,5.31q-3.24,1.07-6.46,2.19l.66,1.9q3.2-1.12,6.43-2.18ZM267.81,26.9q-3.19,1.21-6.36,2.48l.74,1.87q3.15-1.26,6.33-2.46l-.71-1.88ZM251,33.71q-3.13,1.35-6.24,2.75l.82,1.83q3.09-1.39,6.21-2.74Zm-16.47,7.54q-3.07,1.49-6.11,3l.9,1.79q3-1.53,6.09-3l-.87-1.81ZM218.42,49.5q-3,1.62-6,3.29l1,1.75,5.95-3.27-1-1.77Zm-15.75,9q-2.93,1.75-5.83,3.55l1.05,1.71q2.88-1.79,5.8-3.53l-1-1.73Zm-15.34,9.63q-2.85,1.87-5.66,3.8l1.13,1.66q2.8-1.91,5.64-3.78l-1.1-1.68ZM172.42,78.36l-5.5,4,1.2,1.61,5.47-4-1.17-1.63ZM158,89.29q-2.67,2.11-5.31,4.27L154,95.11q2.63-2.15,5.29-4.25Zm-14,11.54q-2.58,2.23-5.12,4.5l1.34,1.5q2.53-2.26,5.1-4.48L144,100.82ZM130.58,113q-2.48,2.34-4.92,4.72l1.4,1.44q2.43-2.37,4.9-4.69Zm-12.91,12.7q-2.38,2.44-4.72,4.92l1.46,1.38q2.33-2.47,4.69-4.9l-1.44-1.4Zm-12.34,13.25q-2.27,2.54-4.5,5.12l1.52,1.31q2.22-2.57,4.48-5.1l-1.5-1.34ZM93.57,152.68q-2.16,2.64-4.27,5.31l1.58,1.24q2.1-2.66,4.25-5.29l-1.56-1.27ZM82.42,166.94q-2,2.73-4,5.5L80,173.62l4-5.47-1.61-1.2ZM71.9,181.69q-1.92,2.82-3.79,5.67l1.68,1.1q1.86-2.84,3.78-5.64l-1.66-1.13ZM62,196.87q-1.8,2.9-3.54,5.83l1.73,1q1.74-2.91,3.53-5.8Zm-9.21,15.6q-1.67,3-3.29,6l1.77,1q1.61-3,3.27-5.94l-1.75-1Zm-8.5,16q-1.54,3-3,6.11l1.81.87q1.48-3.06,3-6.08l-1.79-.9ZM36.51,244.8q-1.4,3.11-2.75,6.24l1.85.8q1.34-3.12,2.74-6.21l-1.83-.82Zm-7.09,16.67q-1.26,3.17-2.47,6.36l1.88.71q1.21-3.18,2.46-6.33Zm-6.34,17q-1.12,3.22-2.19,6.46l1.91.63q1.06-3.22,2.18-6.43ZM17.49,295.7q-1,3.26-1.91,6.55l1.93.55q.93-3.27,1.9-6.52Zm-4.83,17.46q-.84,3.3-1.62,6.62l2,.46q.78-3.31,1.61-6.59l-1.95-.49Zm-4,17.65Q8,334.15,7.33,337.5l2,.38q.64-3.34,1.32-6.66l-2-.41ZM5.33,348.59q-.55,3.36-1,6.74l2,.29q.48-3.36,1-6.71Zm-2.5,17.94q-.39,3.38-.74,6.78l2,.2q.34-3.38.74-6.75Zm-1.73,18q-.25,3.39-.45,6.8l2,.12q.19-3.39.44-6.77l-2-.15ZM.16,402.65Q.06,406,0,409.47H2q0-3.4.15-6.78l-2-.06ZM0,420.76q0,3.42.15,6.82l2-.06q-.1-3.39-.15-6.79H0Zm.63,18.1q.19,3.41.44,6.81l2-.15q-.25-3.38-.44-6.77l-2,.12ZM2,456.92q.34,3.4.73,6.78l2-.24q-.4-3.37-.73-6.75l-2,.2Zm2.2,18q.49,3.38,1,6.74l2-.32q-.54-3.35-1-6.71Zm3,17.87q.64,3.36,1.33,6.69l2-.41q-.69-3.32-1.32-6.66l-2,.38Zm3.8,17.7q.78,3.32,1.62,6.63l1.95-.49Q13.74,513.35,13,510l-2,.46ZM15.53,528q.93,3.29,1.91,6.55l1.92-.58q-1-3.25-1.9-6.52l-1.94.55Zm5.31,17.32q1.07,3.24,2.2,6.46l1.9-.66q-1.12-3.2-2.18-6.43l-1.91.63Zm6.06,17.07q1.21,3.19,2.48,6.36l1.87-.74q-1.26-3.15-2.46-6.33l-1.88.71Zm6.81,16.79q1.35,3.13,2.75,6.24l1.83-.82q-1.4-3.09-2.74-6.21l-1.85.79Zm7.54,16.47q1.49,3.07,3,6.11l1.8-.9q-1.53-3-3-6.08l-1.81.87Zm8.25,16.13q1.62,3,3.29,6l1.75-1q-1.66-3-3.27-6l-1.77,1Zm9,15.75q1.75,2.93,3.55,5.83l1.71-1.06q-1.79-2.88-3.53-5.8l-1.72,1Zm9.63,15.34q1.88,2.85,3.8,5.67l1.66-1.13q-1.91-2.8-3.78-5.64l-1.68,1.1Zm10.29,14.91q2,2.77,4,5.5L84,662.1q-2-2.72-4-5.47l-1.63,1.17Zm10.92,14.44q2.12,2.68,4.27,5.31l1.55-1.27Q93,673.67,90.86,671l-1.58,1.24Zm11.54,14q2.23,2.58,4.5,5.12l1.5-1.34q-2.26-2.53-4.48-5.1l-1.52,1.31ZM113,699.65q2.34,2.48,4.72,4.92l1.44-1.4q-2.37-2.43-4.7-4.9Zm12.7,12.91q2.44,2.38,4.93,4.72l1.38-1.46q-2.47-2.33-4.9-4.69l-1.4,1.44Zm13.2,12.34q2.55,2.27,5.12,4.5l1.31-1.52q-2.57-2.22-5.1-4.48l-1.34,1.5Zm13.77,11.76q2.64,2.16,5.32,4.27l1.24-1.58q-2.66-2.1-5.29-4.25l-1.27,1.56Zm14.27,11.15,5.5,4,1.17-1.63-5.47-4-1.2,1.61Zm14.74,10.52q2.82,1.92,5.67,3.79l1.1-1.68q-2.84-1.86-5.64-3.77l-1.13,1.66Zm15.19,9.86q2.9,1.8,5.83,3.55l1-1.73q-2.91-1.74-5.8-3.53l-1.06,1.71Zm15.6,9.21q3,1.67,6,3.29l1-1.77q-3-1.61-5.95-3.27l-1,1.75Zm16,8.5q3,1.53,6.11,3l.87-1.81q-3.06-1.48-6.08-3l-.9,1.79Zm16.34,7.81q3.11,1.4,6.24,2.75l.79-1.85q-3.12-1.34-6.21-2.74l-.82,1.83Zm16.67,7.09q3.17,1.26,6.36,2.48l.71-1.88q-3.18-1.21-6.33-2.46l-.74,1.87Zm17,6.34q3.22,1.12,6.46,2.19l.63-1.91q-3.22-1.06-6.43-2.18l-.66,1.9Zm17.23,5.58q3.26,1,6.55,1.91l.54-1.93q-3.27-.93-6.52-1.9l-.58,1.92Zm17.46,4.83q3.3.84,6.63,1.62l.46-2q-3.31-.78-6.59-1.61l-.49,2Zm17.66,4q3.34.69,6.69,1.33l.38-2q-3.34-.63-6.66-1.32l-.41,2Zm17.81,3.29q3.36.55,6.74,1l.29-2q-3.36-.48-6.71-1Zm17.94,2.49q3.38.39,6.78.74l.2-2q-3.38-.34-6.75-.74l-.24,2Zm18,1.73q3.4.25,6.81.45l.11-2q-3.39-.19-6.77-.44Z"
                    />
                </g>
            </g>
        </g>
        <path id="path" class="cls-2" d="M830,415.11c0,229.2-185.8,415-415,415S0,644.31,0,415.11,185.8.11,415,.11c219.73,0,399.57,170.76,414.06,386.82"
        />

        <use clip-path="url(#myClip)" xlink:href="#mainPath" fill="white" />

    </svg>
